<?xml version="1.0" encoding="UTF-8" standalone="no"?>
<!DOCTYPE svg PUBLIC "-//W3C//DTD SVG 1.1//EN"
 "http://www.w3.org/Graphics/SVG/1.1/DTD/svg11.dtd">
<!-- Generated by graphviz version 2.40.1 (20161225.0304)
 -->
<!-- Title: state transitions Pages: 1 -->
<svg width="126pt" height="352pt"
 viewBox="0.00 0.00 126.00 352.00" xmlns="http://www.w3.org/2000/svg" xmlns:xlink="http://www.w3.org/1999/xlink">
<g id="graph0" class="graph" transform="scale(1 1) rotate(0) translate(4 348)">
<title>state transitions</title>
<polygon fill="#ffffff" stroke="transparent" points="-4,4 -4,-348 122,-348 122,4 -4,4"/>
<g id="clust1" class="cluster state regular">
<title>cluster_state</title>
<path fill="none" stroke="#000000" stroke-width="2" d="M20,-8C20,-8 98,-8 98,-8 104,-8 110,-14 110,-20 110,-20 110,-324 110,-324 110,-330 104,-336 98,-336 98,-336 20,-336 20,-336 14,-336 8,-330 8,-324 8,-324 8,-20 8,-20 8,-14 14,-8 20,-8"/>
<text text-anchor="start" x="45.9944" y="-317.2" font-family="Helvetica,sans-Serif" font-size="12.00" fill="#000000">state</text>
</g>
<!-- state -->
<!-- IDLE -->
<g id="node2" class="node state regular">
<title>IDLE</title>
<polygon fill="#ffffff" fill-opacity="0.003922" stroke="transparent" stroke-width="2" points="77,-298 21,-298 21,-262 77,-262 77,-298"/>
<text text-anchor="start" x="35.6644" y="-276.2" font-family="Helvetica,sans-Serif" font-size="12.00" fill="#000000">IDLE</text>
<path fill="none" stroke="#000000" stroke-width="2" d="M33.3333,-263C33.3333,-263 64.6667,-263 64.6667,-263 70.3333,-263 76,-268.6667 76,-274.3333 76,-274.3333 76,-285.6667 76,-285.6667 76,-291.3333 70.3333,-297 64.6667,-297 64.6667,-297 33.3333,-297 33.3333,-297 27.6667,-297 22,-291.3333 22,-285.6667 22,-285.6667 22,-274.3333 22,-274.3333 22,-268.6667 27.6667,-263 33.3333,-263"/>
</g>
<!-- START -->
<g id="node3" class="node state regular">
<title>START</title>
<polygon fill="#ffffff" fill-opacity="0.003922" stroke="transparent" stroke-width="2" points="77.5,-216 16.5,-216 16.5,-180 77.5,-180 77.5,-216"/>
<text text-anchor="start" x="27.835" y="-194.2" font-family="Helvetica,sans-Serif" font-size="12.00" fill="#000000">START</text>
<path fill="none" stroke="#000000" stroke-width="2" d="M28.8333,-181C28.8333,-181 65.1667,-181 65.1667,-181 70.8333,-181 76.5,-186.6667 76.5,-192.3333 76.5,-192.3333 76.5,-203.6667 76.5,-203.6667 76.5,-209.3333 70.8333,-215 65.1667,-215 65.1667,-215 28.8333,-215 28.8333,-215 23.1667,-215 17.5,-209.3333 17.5,-203.6667 17.5,-203.6667 17.5,-192.3333 17.5,-192.3333 17.5,-186.6667 23.1667,-181 28.8333,-181"/>
</g>
<!-- IDLE&#45;&gt;START -->
<g id="edge1" class="edge transition">
<title>IDLE&#45;&gt;START</title>
<path fill="none" stroke="#000000" d="M48.5561,-261.8015C48.3024,-251.3976 47.9786,-238.1215 47.6921,-226.3768"/>
<polygon fill="#000000" stroke="#000000" points="51.1855,-226.0592 47.4426,-216.1476 44.1876,-226.23 51.1855,-226.0592"/>
<text text-anchor="start" x="48" y="-236" font-family="Helvetica,sans-Serif" font-size="10.00" fill="#000000">start &#160;&#160;</text>
</g>
<!-- READ -->
<g id="node4" class="node state regular">
<title>READ</title>
<polygon fill="#ffffff" fill-opacity="0.003922" stroke="transparent" stroke-width="2" points="76,-134 20,-134 20,-98 76,-98 76,-134"/>
<text text-anchor="start" x="31.3344" y="-112.2" font-family="Helvetica,sans-Serif" font-size="12.00" fill="#000000">READ</text>
<path fill="none" stroke="#000000" stroke-width="2" d="M32.3333,-99C32.3333,-99 63.6667,-99 63.6667,-99 69.3333,-99 75,-104.6667 75,-110.3333 75,-110.3333 75,-121.6667 75,-121.6667 75,-127.3333 69.3333,-133 63.6667,-133 63.6667,-133 32.3333,-133 32.3333,-133 26.6667,-133 21,-127.3333 21,-121.6667 21,-121.6667 21,-110.3333 21,-110.3333 21,-104.6667 26.6667,-99 32.3333,-99"/>
</g>
<!-- START&#45;&gt;READ -->
<g id="edge2" class="edge transition">
<title>START&#45;&gt;READ</title>
<path fill="none" stroke="#000000" d="M47.2219,-179.8015C47.3488,-169.3976 47.5107,-156.1215 47.6539,-144.3768"/>
<polygon fill="#000000" stroke="#000000" points="51.1564,-144.1896 47.7787,-134.1476 44.1569,-144.1041 51.1564,-144.1896"/>
<text text-anchor="middle" x="48.3895" y="-154" font-family="Helvetica,sans-Serif" font-size="10.00" fill="#000000"> </text>
</g>
<!-- DONE -->
<g id="node5" class="node state regular">
<title>DONE</title>
<polygon fill="#ffffff" fill-opacity="0.003922" stroke="transparent" stroke-width="2" points="89,-52 33,-52 33,-16 89,-16 89,-52"/>
<text text-anchor="start" x="43.6684" y="-30.2" font-family="Helvetica,sans-Serif" font-size="12.00" fill="#000000">DONE</text>
<path fill="none" stroke="#000000" stroke-width="2" d="M45.3333,-17C45.3333,-17 76.6667,-17 76.6667,-17 82.3333,-17 88,-22.6667 88,-28.3333 88,-28.3333 88,-39.6667 88,-39.6667 88,-45.3333 82.3333,-51 76.6667,-51 76.6667,-51 45.3333,-51 45.3333,-51 39.6667,-51 34,-45.3333 34,-39.6667 34,-39.6667 34,-28.3333 34,-28.3333 34,-22.6667 39.6667,-17 45.3333,-17"/>
</g>
<!-- READ&#45;&gt;DONE -->
<g id="edge3" class="edge transition">
<title>READ&#45;&gt;DONE</title>
<path fill="none" stroke="#000000" d="M50.8851,-97.8015C52.5345,-87.3976 54.6393,-74.1215 56.5012,-62.3768"/>
<polygon fill="#000000" stroke="#000000" points="60.0139,-62.5723 58.1229,-52.1476 53.1002,-61.4762 60.0139,-62.5723"/>
<text text-anchor="middle" x="56.3895" y="-72" font-family="Helvetica,sans-Serif" font-size="10.00" fill="#000000"> </text>
</g>
<!-- DONE&#45;&gt;IDLE -->
<g id="edge4" class="edge transition">
<title>DONE&#45;&gt;IDLE</title>
<path fill="none" stroke="#000000" d="M88.2124,-52.3427C94.3033,-58.6048 99,-66.2654 99,-75 99,-142.5 99,-142.5 99,-142.5 99,-145.6417 94.2952,-220.9447 81,-245 79.3161,-248.0467 77.3155,-251.0418 75.1488,-253.9192"/>
<polygon fill="#000000" stroke="#000000" points="72.4172,-251.7301 68.7276,-261.6617 77.8053,-256.1987 72.4172,-251.7301"/>
<text text-anchor="middle" x="99.3895" y="-154" font-family="Helvetica,sans-Serif" font-size="10.00" fill="#000000"> </text>
</g>
</g>
</svg>
